<svg xmlns="http://www.w3.org/2000/svg" xmlns:xlink="http://www.w3.org/1999/xlink" viewBox="0 -0.01 272.6 39.44"><defs fill="#000000000"><clipPath id="clip-path" transform="translate(0)" fill="#000000000"><rect x="0.02" width="272.57" height="39.44" fill="none"/></clipPath><clipPath id="clip-path-2" transform="translate(0)" fill="#000000000"><rect width="272.58" height="39.44" fill="none"/></clipPath></defs><title>eleven</title><g clip-path="url(#clip-path)"><path d="M245.85,34.09V28.68a9.92,9.92,0,0,0,3.25,3.49c2.46,1.63,5.82,2.46,10,2.46s7.1-.74,9.42-2.26a9.58,9.58,0,0,0,4.08-8.15A9.12,9.12,0,0,0,271,18.78h1.24v-3.2a9.33,9.33,0,0,0-4-8C266,6,262.77,5.16,258.73,5.08H204.08a19.71,19.71,0,0,0-29,2.82,12.47,12.47,0,0,0-8.61-2.82s-15.57,0-15.57,0v.85a18.24,18.24,0,0,0-7.49-1.4,18.76,18.76,0,0,0-7.91,1.53l-.06-1c.09.1-35.35,0-35.35,0L100,7.91,99.9,9.16l-.54-1.91-.62-2.17H40V3.74H29.27L28.73,4,22,7.08V3.74H11.3L10.76,4,2.07,8,0,9l.59,2.2,1.62,6,.8,3L5.86,19l1.88-.79V35.6H22V19.69L23.83,19l1.88-.79V35.6H40V17h2.54V34.1H88.76l.53-2.31.3-1.29h.85l.24,1.21.48,2.39h45.78l0-.56a19.49,19.49,0,0,0,6.73,1.1,19.82,19.82,0,0,0,7.27-1.16v.62h15.44V26.74a19.52,19.52,0,0,0,5.71-1.1,19.71,19.71,0,0,0,32.3,8.45Z" transform="translate(0)" fill="#f6f6f6"/></g><g clip-path="url(#clip-path-2)"><path d="M266.27,18.61a28.9,28.9,0,0,0-6.2-1.72c-2.21-.46-3.31-1.14-3.31-2.05a1.81,1.81,0,0,1,.56-1.33A1.9,1.9,0,0,1,258.7,13a1.62,1.62,0,0,1,1.48.95,3.38,3.38,0,0,1,.41,1.73v.15h8.63v-.22c0-4.88-3.71-7.39-10.56-7.52H206.76a19.67,19.67,0,0,1,.17,23.06H216V23h.32a1.94,1.94,0,0,1,2,1,14.37,14.37,0,0,1,.43,2.11,32.33,32.33,0,0,0,1,5.05h9.38a31.05,31.05,0,0,1-1-5.48,11.72,11.72,0,0,0-.92-4.06,4.36,4.36,0,0,0-3.31-2.21c2.67-.6,4.06-2.37,4.19-5.29h5.07v17h9.72v-17h4.91a7.79,7.79,0,0,0-.07,1A5.29,5.29,0,0,0,251,20.18a53,53,0,0,0,6.08,1.64c2.18.52,3.26,1.35,3.26,2.47a1.86,1.86,0,0,1-.47,1.25,1.53,1.53,0,0,1-1.17.55,1.73,1.73,0,0,1-1.78-1.15,6.4,6.4,0,0,1-.24-2.27h-9.11l.06,1.61c.37,4.57,4.17,7.36,11.48,7.36q5.07,0,7.77-1.77a6.71,6.71,0,0,0,2.75-5.67,5.85,5.85,0,0,0-3.34-5.6m-49.52-1.19h-1.14V13.31h1.2c1.68,0,2.53.65,2.53,2s-.86,2.15-2.59,2.15" transform="translate(0)" fill="#000000"/><path d="M39.86,8.06V14h5.67V31.12h9.72V14h5.39V31.12H86.39l.84-3.59h5.65l.72,3.59h16.32c.24-5,.39-9.4.43-13.17l3.36,13.17h8.18c1.37-5.29,2.43-9.68,3.19-13.26.22,4.27.39,8.66.53,13.26h8.2c-.06-1.27-.12-2.46-.18-3.65,1.65,2.41,4.7,4.2,10,4.2q5.09,0,7.78-1.77a8.77,8.77,0,0,0,2.47-2.81v4h9.48V23.86q5.61,0,8.1-1.2l.06,0a19.76,19.76,0,0,1-.21-2.89,19.37,19.37,0,0,1,2.28-9.17c-1.95-2-4.17-2.51-7.12-2.51H153.89v5.33c-.95-3.58-4.36-5.88-10.47-5.88A15.36,15.36,0,0,0,136.33,9a7.2,7.2,0,0,0-3.42,4.18c-.1-1.94-.19-3.59-.27-5.09H120.4c-1.17,5.38-2,9.68-2.56,13-1.11-6.07-1.93-10.31-2.51-13h-12.4c-.44,9-.77,15.31-1,19.24L96.49,8.06H83.94L79,25H70V22.63h8.32V16.3H70V14h8.68v-6ZM88.45,21.71,90.12,14l1.59,7.73Zm56.32,3.78a1.49,1.49,0,0,1-1.15.55,1.74,1.74,0,0,1-1.79-1.15,6.05,6.05,0,0,1-.25-2.22h-8.19c-.09-1.85-.17-3.59-.25-5.21a5.47,5.47,0,0,0,2.77,2.67A52.31,52.31,0,0,0,142,21.77c2.18.52,3.26,1.35,3.26,2.47a1.87,1.87,0,0,1-.48,1.25m9.12-4.3a5.89,5.89,0,0,0-2.68-2.63A29.24,29.24,0,0,0,145,16.84c-2.21-.46-3.31-1.14-3.31-2.05a1.81,1.81,0,0,1,.56-1.33,1.9,1.9,0,0,1,1.38-.54,1.62,1.62,0,0,1,1.48.95,3.4,3.4,0,0,1,.41,1.74v.19h8.37Zm9.69-3.1-.37,0V13.19a4.33,4.33,0,0,1,2.38.3,2.33,2.33,0,0,1,.92,2.11c0,1.66-1,2.49-2.93,2.49" transform="translate(0)" fill="#000000"/><path d="M207.4,19.72a16.52,16.52,0,1,0-24.68,14.35V19h-.08l-5.07,2.25L176.43,16l7.32-3.24h5.85V36.18c.43,0,.85,0,1.28,0s.69,0,1,0V12.74h5.86L205.08,16l-1.15,5.3L198.87,19h-.08V34.22a16.51,16.51,0,0,0,8.61-14.5" transform="translate(0)" fill="#000000"/><polygon points="21.17 10.47 29.86 6.44 37.3 6.44 37.3 32.89 28.41 32.89 28.41 14.15 28.3 14.15 22.79 16.45 21.17 10.47" fill="#000000"/><polygon points="3.21 10.47 11.9 6.44 19.34 6.44 19.34 32.89 10.45 32.89 10.45 14.15 10.34 14.15 4.82 16.45 3.21 10.47" fill="#000000"/></g></svg>